name Walk7_EMG.mot
datacolumns 17
datarows 30
range 2.01200000 2.04100000
endheader
                time	            vasmed_r	            vaslat_r	            recfem_r	               gra_r	               sar_r	            tibant_r	           perlong_r	            addmag_r	           semimem_r	          bicfemlh_r	            gasmed_r	            gaslat_r	               sol_r	               tfl_r	              gmed_r	              gmax_r	
          2.01200000	          0.05873072	          0.08809436	          0.17634262	          0.28499148	          0.30062704	          0.01418613	          0.01678941	          0.28381612	          0.43975533	          0.36957879	          0.24357262	          0.06421276	          0.02766043	          0.27286652	          0.10084634	          0.14190949	
          2.01300000	          0.05897567	          0.08919653	          0.17688935	          0.29001730	          0.29357411	          0.01202121	          0.01679784	          0.28461004	          0.44900416	          0.37297089	          0.24469691	          0.06414184	          0.02816231	          0.27478251	          0.10066892	          0.14225155	
          2.01400000	          0.05922837	          0.09031436	          0.17735483	          0.29477259	          0.28671365	          0.01003609	          0.01682718	          0.28537344	          0.45796260	          0.37586425	          0.24547438	          0.06407011	          0.02866573	          0.27671765	          0.10049721	          0.14259044	
          2.01500000	          0.05948590	          0.09144547	          0.17773655	          0.29924408	          0.28005204	          0.00822829	          0.01687806	          0.28610685	          0.46662394	          0.37825055	          0.24590356	          0.06399672	          0.02916904	          0.27866368	          0.10033409	          0.14292604	
          2.01600000	          0.05974507	          0.09258634	          0.17803269	          0.30342285	          0.27359606	          0.00659495	          0.01695115	          0.28680823	          0.47498136	          0.38012316	          0.24598507	          0.06392063	          0.02967051	          0.28061009	          0.10018148	          0.14325800	
          2.01700000	          0.06000244	          0.09373251	          0.17824199	          0.30730271	          0.26735253	          0.00513292	          0.01704688	          0.28747372	          0.48302892	          0.38147866	          0.24572109	          0.06384073	          0.03016828	          0.28254390	          0.10004013	          0.14358527	
          2.01800000	          0.06025442	          0.09487884	          0.17836382	          0.31087926	          0.26132730	          0.00383866	          0.01716521	          0.28809870	          0.49076352	          0.38231903	          0.24511479	          0.06375588	          0.03066042	          0.28445079	          0.09991010	          0.14390628	
          2.01900000	          0.06049747	          0.09601993	          0.17839767	          0.31415065	          0.25552470	          0.00270817	          0.01730551	          0.28867897	          0.49818545	          0.38265155	          0.24417028	          0.06366515	          0.03114497	          0.28631709	          0.09979118	          0.14421938	
          2.02000000	          0.06072834	          0.09715037	          0.17834266	          0.31711780	          0.24994807	          0.00173690	          0.01746668	          0.28921207	          0.50529711	          0.38248647	          0.24289302	          0.06356821	          0.03161995	          0.28813078	          0.09968321	          0.14452353	
          2.02100000	          0.06094415	          0.09826468	          0.17819750	          0.31978270	          0.24460099	          0.00091977	          0.01764715	          0.28969858	          0.51210351	          0.38183547	          0.24128982	          0.06346546	          0.03208333	          0.28988096	          0.09958658	          0.14481874	
          2.02200000	          0.06114245	          0.09935723	          0.17796061	          0.32214666	          0.23948975	          0.00025120	          0.01784513	          0.29014155	          0.51861465	          0.38071130	          0.23936884	          0.06335781	          0.03253321	          0.29155689	          0.09950297	          0.14510621	
          2.02300000	          0.06132117	          0.10042227	          0.17763046	          0.32421000	          0.23462634	          0.00000000	          0.01805873	          0.29054423	          0.52484439	          0.37912801	          0.23713979	          0.06324647	          0.03296807	          0.29314741	          0.09943493	          0.14538846	
          2.02400000	          0.06147826	          0.10145420	          0.17720569	          0.32597224	          0.23002904	          0.00000000	          0.01828603	          0.29090822	          0.53080606	          0.37710165	          0.23461413	          0.06313258	          0.03338690	          0.29464177	          0.09938456	          0.14566866	
          2.02500000	          0.06161161	          0.10244839	          0.17668471	          0.32743233	          0.22571970	          0.00000000	          0.01852498	          0.29123297	          0.53650980	          0.37465036	          0.23180475	          0.06301688	          0.03378889	          0.29603088	          0.09935266	          0.14594940	
          2.02600000	          0.06171917	          0.10340207	          0.17606566	          0.32858907	          0.22172025	          0.00000000	          0.01877333	          0.29151579	          0.54196191	          0.37179421	          0.22872546	          0.06289968	          0.03417318	          0.29730718	          0.09933874	          0.14623201	
          2.02700000	          0.06179920	          0.10431388	          0.17534669	          0.32944147	          0.21804995	          0.00000000	          0.01902865	          0.29175213	          0.54716592	          0.36855544	          0.22539062	          0.06278117	          0.03453874	          0.29846377	          0.09934115	          0.14651667	
          2.02800000	          0.06185032	          0.10518250	          0.17452618	          0.32998866	          0.21472391	          0.00000000	          0.01928835	          0.29193543	          0.55212451	          0.36495919	          0.22181530	          0.06266149	          0.03488455	          0.29949528	          0.09935759	          0.14680270	
          2.02900000	          0.06187150	          0.10600627	          0.17360310	          0.33023075	          0.21175398	          0.00000000	          0.01954973	          0.29205740	          0.55684066	          0.36103325	          0.21801545	          0.06254049	          0.03520987	          0.30039919	          0.09938549	          0.14708912	
          2.03000000	          0.06186204	          0.10678387	          0.17257810	          0.33017100	          0.20915341	          0.00000000	          0.01981016	          0.29210858	          0.56131826	          0.35680633	          0.21400761	          0.06241778	          0.03551426	          0.30117563	          0.09942218	          0.14737551	
          2.03100000	          0.06182142	          0.10751513	          0.17145465	          0.32981789	          0.20694193	          0.00000000	          0.02006733	          0.29207928	          0.56556175	          0.35230642	          0.20980824	          0.06229299	          0.03579746	          0.30182567	          0.09946486	          0.14766197	
          2.03200000	          0.06174917	          0.10820141	          0.17023888	          0.32918644	          0.20514611	          0.00025298	          0.02031936	          0.29196121	          0.56957393	          0.34756039	          0.20543350	          0.06216594	          0.03605907	          0.30234983	          0.09951074	          0.14794855	
          2.03300000	          0.06164490	          0.10884519	          0.16893818	          0.32829950	          0.20379699	          0.00076341	          0.02056482	          0.29175039	          0.57335393	          0.34259403	          0.20089934	          0.06203647	          0.03629852	          0.30274808	          0.09955738	          0.14823496	
          2.03400000	          0.06150861	          0.10944898	          0.16756033	          0.32718724	          0.20292889	          0.00133895	          0.02080269	          0.29144906	          0.57689695	          0.33743162	          0.19622156	          0.06190425	          0.03651512	          0.30302028	          0.09960296	          0.14852054	
          2.03500000	          0.06134122	          0.11001447	          0.16611313	          0.32588255	          0.20257735	          0.00197329	          0.02103226	          0.29106418	          0.58019518	          0.33209651	          0.19141579	          0.06176889	          0.03670828	          0.30316685	          0.09964617	          0.14880467	
          2.03600000	          0.06114470	          0.11054237	          0.16460417	          0.32441556	          0.20277476	          0.00266020	          0.02125298	          0.29060557	          0.58323836	          0.32661283	          0.18649723	          0.06163020	          0.03687750	          0.30318958	          0.09968590	          0.14908730	
          2.03700000	          0.06092151	          0.11103275	          0.16304086	          0.32281158	          0.20354708	          0.00339351	          0.02146431	          0.29008645	          0.58601395	          0.32100634	          0.18148056	          0.06148829	          0.03702228	          0.30309113	          0.09972106	          0.14936885	
          2.03800000	          0.06067393	          0.11148543	          0.16143096	          0.32109223	          0.20491189	          0.00416712	          0.02166564	          0.28952351	          0.58850833	          0.31530365	          0.17637996	          0.06134324	          0.03714204	          0.30287396	          0.09975043	          0.14964986	
          2.03900000	          0.06040402	          0.11190014	          0.15978267	          0.31927847	          0.20687742	          0.00497495	          0.02185637	          0.28893529	          0.59070905	          0.30953142	          0.17120949	          0.06119482	          0.03723619	          0.30254067	          0.09977240	          0.14993099	
          2.04000000	          0.06011393	          0.11227658	          0.15810403	          0.31739526	          0.20944354	          0.00581101	          0.02203601	          0.28834140	          0.59260590	          0.30371680	          0.16598331	          0.06104279	          0.03730420	          0.30209476	          0.09978509	          0.15021355	
          2.04100000	          0.05980601	          0.11261461	          0.15640258	          0.31547589	          0.21260327	          0.00666946	          0.02220432	          0.28776277	          0.59419002	          0.29788787	          0.16071561	          0.06088714	          0.03734556	          0.30154006	          0.09978693	          0.15049952	
